<svg xmlns="http://www.w3.org/2000/svg" width="960" height="760" viewBox="0 0 960 760">
<rect width="100%" height="100%" fill="#f8f8f8"/>
<text x="80" y="40" font-size="24" font-family="Helvetica" fill="#111">FCGL cumulative profile comparison (ell = 0)</text>
<text x="80" y="68" font-size="14" font-family="Helvetica" fill="#444">Blue: Fortran points + line, Orange: Julia line, x-axis: psi</text>
<rect x="80.0" y="110.0" width="820.0" height="250.0" fill="white" stroke="#cccccc"/>
<line x1="80.0" y1="360.0" x2="900.0" y2="360.0" stroke="#333" stroke-width="1"/>
<line x1="80.0" y1="110.0" x2="80.0" y2="360.0" stroke="#333" stroke-width="1"/>
<text x="80.0" y="98.0" font-size="18" font-family="Helvetica" fill="#111">Real part</text>
<polyline fill="none" stroke="#1f77b4" stroke-width="2.5" points="80.00,235.00 87.72,235.00 114.76,235.00 253.82,235.00 452.31,235.00 521.89,235.00 547.33,235.00 598.74,235.00 608.56,235.00 623.29,235.00 678.52,235.00 738.36,235.00 789.08,235.00 839.12,235.00 850.12,235.00 854.51,235.00 855.83,235.00 859.60,235.00 871.07,235.00 900.00,235.00"/>
<polyline fill="none" stroke="#d95f02" stroke-width="2.5" points="80.00,235.00 87.72,235.00 114.76,235.00 253.82,235.00 452.31,235.00 521.89,235.00 547.33,235.00 598.74,235.00 608.56,235.00 623.29,235.00 678.52,235.00 738.36,235.00 789.08,235.00 839.12,235.00 850.12,235.00 854.51,235.00 855.83,235.00 859.60,235.00 871.07,235.00 900.00,235.00"/>
<circle cx="80.00" cy="235.00" r="3.2" fill="#1f77b4"/>
<circle cx="87.72" cy="235.00" r="3.2" fill="#1f77b4"/>
<circle cx="114.76" cy="235.00" r="3.2" fill="#1f77b4"/>
<circle cx="253.82" cy="235.00" r="3.2" fill="#1f77b4"/>
<circle cx="452.31" cy="235.00" r="3.2" fill="#1f77b4"/>
<circle cx="521.89" cy="235.00" r="3.2" fill="#1f77b4"/>
<circle cx="547.33" cy="235.00" r="3.2" fill="#1f77b4"/>
<circle cx="598.74" cy="235.00" r="3.2" fill="#1f77b4"/>
<circle cx="608.56" cy="235.00" r="3.2" fill="#1f77b4"/>
<circle cx="623.29" cy="235.00" r="3.2" fill="#1f77b4"/>
<circle cx="678.52" cy="235.00" r="3.2" fill="#1f77b4"/>
<circle cx="738.36" cy="235.00" r="3.2" fill="#1f77b4"/>
<circle cx="789.08" cy="235.00" r="3.2" fill="#1f77b4"/>
<circle cx="839.12" cy="235.00" r="3.2" fill="#1f77b4"/>
<circle cx="850.12" cy="235.00" r="3.2" fill="#1f77b4"/>
<circle cx="854.51" cy="235.00" r="3.2" fill="#1f77b4"/>
<circle cx="855.83" cy="235.00" r="3.2" fill="#1f77b4"/>
<circle cx="859.60" cy="235.00" r="3.2" fill="#1f77b4"/>
<circle cx="871.07" cy="235.00" r="3.2" fill="#1f77b4"/>
<circle cx="900.00" cy="235.00" r="3.2" fill="#1f77b4"/>
<text x="80.0" y="382.0" font-size="12" font-family="Helvetica" fill="#333">psi min = 0.011, psi max = 0.992</text>
<text x="310.0" y="382.0" font-size="12" font-family="Helvetica" fill="#333">y min = -5.000e-02, y max = 5.000e-02</text>
<rect x="80.0" y="430.0" width="820.0" height="250.0" fill="white" stroke="#cccccc"/>
<line x1="80.0" y1="680.0" x2="900.0" y2="680.0" stroke="#333" stroke-width="1"/>
<line x1="80.0" y1="430.0" x2="80.0" y2="680.0" stroke="#333" stroke-width="1"/>
<text x="80.0" y="418.0" font-size="18" font-family="Helvetica" fill="#111">Imaginary part</text>
<polyline fill="none" stroke="#1f77b4" stroke-width="2.5" points="80.00,662.76 87.72,660.17 114.76,658.59 253.82,652.49 452.31,640.71 521.89,623.39 547.33,603.21 598.74,578.37 608.56,568.07 623.29,561.00 678.52,555.72 738.36,540.90 789.08,528.98 839.12,498.19 850.12,481.86 854.51,470.24 855.83,464.40 859.60,461.22 871.07,457.03 900.00,447.24"/>
<polyline fill="none" stroke="#d95f02" stroke-width="2.5" points="80.00,662.75 87.72,660.23 114.76,658.72 253.82,652.64 452.31,639.66 521.89,623.28 547.33,602.06 598.74,585.09 608.56,570.37 623.29,566.25 678.52,563.45 738.36,548.17 789.08,539.45 839.12,508.00 850.12,493.48 854.51,479.31 855.83,472.12 859.60,468.03 871.07,463.78 900.00,456.38"/>
<circle cx="80.00" cy="662.76" r="3.2" fill="#1f77b4"/>
<circle cx="87.72" cy="660.17" r="3.2" fill="#1f77b4"/>
<circle cx="114.76" cy="658.59" r="3.2" fill="#1f77b4"/>
<circle cx="253.82" cy="652.49" r="3.2" fill="#1f77b4"/>
<circle cx="452.31" cy="640.71" r="3.2" fill="#1f77b4"/>
<circle cx="521.89" cy="623.39" r="3.2" fill="#1f77b4"/>
<circle cx="547.33" cy="603.21" r="3.2" fill="#1f77b4"/>
<circle cx="598.74" cy="578.37" r="3.2" fill="#1f77b4"/>
<circle cx="608.56" cy="568.07" r="3.2" fill="#1f77b4"/>
<circle cx="623.29" cy="561.00" r="3.2" fill="#1f77b4"/>
<circle cx="678.52" cy="555.72" r="3.2" fill="#1f77b4"/>
<circle cx="738.36" cy="540.90" r="3.2" fill="#1f77b4"/>
<circle cx="789.08" cy="528.98" r="3.2" fill="#1f77b4"/>
<circle cx="839.12" cy="498.19" r="3.2" fill="#1f77b4"/>
<circle cx="850.12" cy="481.86" r="3.2" fill="#1f77b4"/>
<circle cx="854.51" cy="470.24" r="3.2" fill="#1f77b4"/>
<circle cx="855.83" cy="464.40" r="3.2" fill="#1f77b4"/>
<circle cx="859.60" cy="461.22" r="3.2" fill="#1f77b4"/>
<circle cx="871.07" cy="457.03" r="3.2" fill="#1f77b4"/>
<circle cx="900.00" cy="447.24" r="3.2" fill="#1f77b4"/>
<text x="80.0" y="702.0" font-size="12" font-family="Helvetica" fill="#333">psi min = 0.011, psi max = 0.992</text>
<text x="310.0" y="702.0" font-size="12" font-family="Helvetica" fill="#333">y min = -1.214e-01, y max = 1.665e+00</text>
</svg>
