<svg xmlns="http://www.w3.org/2000/svg" width="960" height="760" viewBox="0 0 960 760">
<rect width="100%" height="100%" fill="#f8f8f8"/>
<text x="80" y="40" font-size="24" font-family="Helvetica" fill="#111">PGAR local profile comparison (ell = 2)</text>
<text x="80" y="68" font-size="14" font-family="Helvetica" fill="#444">Blue: Fortran points + line, Orange: Julia line, x-axis: psi</text>
<rect x="80.0" y="110.0" width="820.0" height="250.0" fill="white" stroke="#cccccc"/>
<line x1="80.0" y1="360.0" x2="900.0" y2="360.0" stroke="#333" stroke-width="1"/>
<line x1="80.0" y1="110.0" x2="80.0" y2="360.0" stroke="#333" stroke-width="1"/>
<text x="80.0" y="98.0" font-size="18" font-family="Helvetica" fill="#111">Real part</text>
<polyline fill="none" stroke="#1f77b4" stroke-width="2.5" points="80.00,316.49 181.91,342.54 333.46,342.71 365.68,342.76 477.71,341.54 685.55,342.28 775.49,340.05 846.85,339.80 865.62,341.55 900.00,165.12"/>
<polyline fill="none" stroke="#d95f02" stroke-width="2.5" points="80.00,299.04 181.91,342.35 333.46,340.83 365.68,341.16 477.71,341.58 685.55,342.02 775.49,317.88 846.85,334.95 865.62,330.79 900.00,127.24"/>
<circle cx="80.00" cy="316.49" r="3.2" fill="#1f77b4"/>
<circle cx="181.91" cy="342.54" r="3.2" fill="#1f77b4"/>
<circle cx="333.46" cy="342.71" r="3.2" fill="#1f77b4"/>
<circle cx="365.68" cy="342.76" r="3.2" fill="#1f77b4"/>
<circle cx="477.71" cy="341.54" r="3.2" fill="#1f77b4"/>
<circle cx="685.55" cy="342.28" r="3.2" fill="#1f77b4"/>
<circle cx="775.49" cy="340.05" r="3.2" fill="#1f77b4"/>
<circle cx="846.85" cy="339.80" r="3.2" fill="#1f77b4"/>
<circle cx="865.62" cy="341.55" r="3.2" fill="#1f77b4"/>
<circle cx="900.00" cy="165.12" r="3.2" fill="#1f77b4"/>
<text x="80.0" y="382.0" font-size="12" font-family="Helvetica" fill="#333">psi min = 0.020, psi max = 0.992</text>
<text x="310.0" y="382.0" font-size="12" font-family="Helvetica" fill="#333">y min = -4.020e-06, y max = 5.703e-05</text>
<rect x="80.0" y="430.0" width="820.0" height="250.0" fill="white" stroke="#cccccc"/>
<line x1="80.0" y1="680.0" x2="900.0" y2="680.0" stroke="#333" stroke-width="1"/>
<line x1="80.0" y1="430.0" x2="80.0" y2="680.0" stroke="#333" stroke-width="1"/>
<text x="80.0" y="418.0" font-size="18" font-family="Helvetica" fill="#111">Imaginary part</text>
<polyline fill="none" stroke="#1f77b4" stroke-width="2.5" points="80.00,513.71 181.91,452.41 333.46,452.02 365.68,451.52 477.71,454.29 685.55,449.96 775.49,456.21 846.85,514.98 865.62,447.24 900.00,547.88"/>
<polyline fill="none" stroke="#d95f02" stroke-width="2.5" points="80.00,662.76 181.91,465.10 333.46,469.94 365.68,464.45 477.71,456.48 685.55,451.20 775.49,513.61 846.85,614.29 865.62,453.77 900.00,607.15"/>
<circle cx="80.00" cy="513.71" r="3.2" fill="#1f77b4"/>
<circle cx="181.91" cy="452.41" r="3.2" fill="#1f77b4"/>
<circle cx="333.46" cy="452.02" r="3.2" fill="#1f77b4"/>
<circle cx="365.68" cy="451.52" r="3.2" fill="#1f77b4"/>
<circle cx="477.71" cy="454.29" r="3.2" fill="#1f77b4"/>
<circle cx="685.55" cy="449.96" r="3.2" fill="#1f77b4"/>
<circle cx="775.49" cy="456.21" r="3.2" fill="#1f77b4"/>
<circle cx="846.85" cy="514.98" r="3.2" fill="#1f77b4"/>
<circle cx="865.62" cy="447.24" r="3.2" fill="#1f77b4"/>
<circle cx="900.00" cy="547.88" r="3.2" fill="#1f77b4"/>
<text x="80.0" y="702.0" font-size="12" font-family="Helvetica" fill="#333">psi min = 0.020, psi max = 0.992</text>
<text x="310.0" y="702.0" font-size="12" font-family="Helvetica" fill="#333">y min = -6.041e-04, y max = 4.758e-05</text>
</svg>
